/* XPM */
static char *bathron16[] = {
/* columns rows colors chars-per-pixel */
"16 16 94 2 ",
"   c black",
".  c #000001",
"X  c #000101",
"o  c #010101",
"O  c #010000",
"+  c #020100",
"@  c #020509",
"#  c #040D1B",
"$  c #091322",
"%  c #04070E",
"&  c #060606",
"*  c #3C5A79",
"=  c #678DB3",
"-  c #5A6A80",
";  c #C4C2B3",
":  c #9F9E9A",
">  c #403E3B",
",  c #222018",
"<  c #7C7C7C",
"1  c #383839",
"2  c #020202",
"3  c #070E1B",
"4  c #275579",
"5  c #4F6172",
"6  c #D3CFCE",
"7  c #8E8C87",
"8  c #9A9892",
"9  c #C4BEB6",
"0  c #050000",
"q  c #6A6E77",
"w  c #2E2F30",
"e  c #010102",
"r  c #111B29",
"t  c #3C4E4D",
"y  c #626153",
"u  c #A0A1A7",
"i  c #515152",
"p  c #848482",
"a  c #78736F",
"s  c #5E5F61",
"d  c #2D3035",
"f  c #040609",
"g  c #040509",
"h  c #100C05",
"j  c #61513B",
"k  c #90877B",
"l  c #3A3933",
"z  c #89837D",
"x  c #968B82",
"c  c #1E222B",
"v  c #18191D",
"b  c #5A5D63",
"n  c #464544",
"m  c #6F6254",
"M  c #68625B",
"N  c #595650",
"B  c #56523D",
"V  c #173B4B",
"C  c #000512",
"Z  c #040200",
"A  c #020203",
"S  c #2D2F32",
"D  c #26282C",
"F  c #050C16",
"G  c #00010A",
"H  c #00010C",
"J  c #001530",
"K  c #021E2F",
"L  c #1D1F21",
"P  c #64696E",
"I  c #444A51",
"U  c #4B4F53",
"Y  c #4C4E51",
"T  c #3E4146",
"R  c #565B61",
"E  c #616165",
"W  c #555559",
"Q  c #626971",
"!  c #595F65",
"~  c #191C1F",
"^  c #010001",
"/  c #111214",
"(  c #41444A",
")  c #373B40",
"_  c #33363B",
"`  c #25282B",
"'  c #26282B",
"]  c #323538",
"[  c #35393D",
"{  c #33373D",
"}  c #34383D",
"|  c #3C3F44",
" . c #121416",
".. c white",
/* pixels */
"                                ",
"              . X .             ",
"          o       O +   o o     ",
"            @ # $ %   & &       ",
"      o   * = - ; : > , < 1   2 ",
"    .   3 4 5 6 7 8 9 0 q w   o ",
"      e r t y u i p a s d   o   ",
"      f g h j k l z x c   o     ",
"      v b n m M N B V C Z       ",
"    . A S D F G H J K A . e     ",
"o   L P I U Y T R E W Q ! ~   ^ ",
"    / ( ) _ ` ' ] [ { } |  .    ",
"                                ",
"      o o o X o o o o o o       ",
"                                ",
"                                "
};
