/* XPM */
static char *bathron64[] = {
/* columns rows colors chars-per-pixel */
"64 64 236 2 ",
"   c #000000",
".  c #090604",
"X  c #04050A",
"o  c #06090C",
"O  c #090A0D",
"+  c #0C0903",
"@  c #130E06",
"#  c #191409",
"$  c #040A13",
"%  c #0A0D12",
"&  c #030C1B",
"*  c #080E19",
"=  c #010514",
"-  c #0D1015",
";  c #04111A",
":  c #0C131B",
">  c #121213",
",  c #1C1A15",
"<  c #11151B",
"1  c #14191E",
"2  c #1C1C1B",
"3  c #1A1611",
"4  c #241A04",
"5  c #261908",
"6  c #301D04",
"7  c #312205",
"8  c #332A19",
"9  c #332B1A",
"0  c #030E21",
"q  c #051424",
"w  c #0C1325",
"e  c #04142B",
"r  c #0C152B",
"t  c #081B29",
"y  c #131B22",
"u  c #131929",
"i  c #091B35",
"p  c #151D3A",
"a  c #1E2123",
"s  c #1B262C",
"d  c #0E2636",
"f  c #182737",
"g  c #042C35",
"h  c #222121",
"j  c #24262B",
"k  c #26292D",
"l  c #2C2C2C",
"z  c #272824",
"x  c #262B33",
"c  c #2E3235",
"v  c #2D333B",
"b  c #24313C",
"n  c #35393D",
"m  c #393A3C",
"M  c #323538",
"N  c #373328",
"B  c #472E08",
"V  c #48381C",
"C  c #593F1B",
"Z  c #633809",
"A  c #4A3D24",
"S  c #453F30",
"D  c #594716",
"F  c #764811",
"G  c #57452D",
"H  c #594932",
"J  c #534C2E",
"K  c #69532E",
"L  c #7F6A3B",
"P  c #092949",
"I  c #172A49",
"U  c #043748",
"Y  c #183146",
"T  c #142D56",
"R  c #03325E",
"E  c #1A3559",
"W  c #0E2B5C",
"Q  c #253647",
"!  c #353B42",
"~  c #3B3E43",
"^  c #3A3F4B",
"/  c #253A55",
"(  c #212D46",
")  c #0F3968",
"_  c #293F60",
"`  c #184753",
"'  c #3D434B",
"]  c #3C4446",
"[  c #26435D",
"{  c #384D58",
"}  c #165767",
"|  c #054B78",
" . c #35586A",
".. c #314B69",
"X. c #3E626F",
"o. c #454547",
"O. c #43464B",
"+. c #45494D",
"@. c #494B4E",
"#. c #4A4A44",
"$. c #454C53",
"%. c #474D55",
"&. c #4C535B",
"*. c #4C5155",
"=. c #5D5D5C",
"-. c #575756",
";. c #585346",
":. c #665A47",
">. c #625A52",
",. c #596353",
"<. c #776D5D",
"1. c #676053",
"2. c #4E5761",
"3. c #535A64",
"4. c #555B66",
"5. c #4C5C77",
"6. c #5D626C",
"7. c #5E6874",
"8. c #596977",
"9. c #496771",
"0. c #656567",
"q. c #656768",
"w. c #79746A",
"e. c #656C73",
"r. c #666E7A",
"t. c #676B75",
"y. c #6B717B",
"u. c #737272",
"i. c #7A7977",
"p. c #6B706C",
"a. c #835911",
"s. c #9B6D1B",
"d. c #9D792E",
"f. c #A97932",
"g. c #847448",
"h. c #947A57",
"j. c #8E6E48",
"k. c #817F70",
"l. c #807467",
"z. c #888466",
"x. c #95836A",
"c. c #898475",
"v. c #948C7E",
"b. c #99937F",
"n. c #A49476",
"m. c #C7B379",
"M. c #1A4584",
"N. c #085D9B",
"B. c #0E4884",
"V. c #2B5691",
"C. c #066F96",
"Z. c #0066AA",
"A. c #3575A8",
"S. c #435F85",
"D. c #476288",
"F. c #507295",
"G. c #697283",
"H. c #757B83",
"J. c #626D81",
"K. c #4A76AC",
"L. c #5879AA",
"P. c #0D88AD",
"I. c #7C8289",
"U. c #798192",
"Y. c #0097D6",
"T. c #0FA1E4",
"R. c #69A1D7",
"E. c #76BFED",
"W. c #5F95D6",
"Q. c #20CFF5",
"!. c #78CCF3",
"~. c #868789",
"^. c #9A9387",
"/. c #838A94",
"(. c #8A8D92",
"). c #808796",
"_. c #8D9198",
"`. c #989898",
"'. c #A29B96",
"]. c #A3A18C",
"[. c #B1A28A",
"{. c #A8A49D",
"}. c #BBB59A",
"|. c #8D96A4",
" X c #9196A2",
".X c #9B9EA3",
"XX c #939AA6",
"oX c #9DA2AA",
"OX c #9DA6B2",
"+X c #9EA9B6",
"@X c #A4A7AB",
"#X c #A6A9AD",
"$X c #A7A6A7",
"%X c #BEB7A8",
"&X c #ACAEB3",
"*X c #A4ACB6",
"=X c #ADB1B6",
"-X c #ADB1BB",
";X c #B7B9BD",
":X c #B8B8BA",
">X c #BAAFA8",
",X c #C3BBAA",
"<X c #C0BFBF",
"1X c #D4C499",
"2X c #C7C2BB",
"3X c #D5CBB3",
"4X c #FFF1A9",
"5X c #BDBFC2",
"6X c #B2B9C4",
"7X c #ADB6C3",
"8X c #BDC1C8",
"9X c #92C6E8",
"0X c #B6E5F5",
"qX c #C3C7CD",
"wX c #C7C9CC",
"eX c #CBCBCD",
"rX c #C5C4C2",
"tX c #D0CFCF",
"yX c #C7CBD2",
"uX c #CCD1DA",
"iX c #D2D3D3",
"pX c #D9DADC",
"aX c #D2D6DB",
"sX c #E0DCD4",
"dX c #ECE9DB",
"fX c #DADDE2",
"gX c #DEE2E8",
"hX c #E3E3E4",
"jX c #ECECEE",
"kX c #E9E9E7",
"lX c #FDFCEA",
"zX c #EBEDF2",
"xX c #ECF8F9",
"cX c #F4F4F4",
"vX c #FDFDFD",
"bX c #F9F8F4",
/* pixels */
"                                                                                                                                ",
"                                                                                                                                ",
"                                                                                                                                ",
"                                                                                                                                ",
"                                                                                                                                ",
"                                                                                                                                ",
"                                                                                                                                ",
"                                                                                                                                ",
"                                                                                                                                ",
"                                                                                                                                ",
"                                                                                                                                ",
"                                                                                                                                ",
"                                                                                                                                ",
"                                                                                                                                ",
"                                                          X u ( / _ [ / ( f w o                                                 ",
"                                              $ $   X f ..D.S.../ d d f e e p p p *                                             ",
"                                          X = T W / F.L.5./ Y I I )..X%. X_.s $ $ r w   O h c ~ *.o.h                           ",
"                                        o r M.R.9X!.K.[ E ) E I l dXsXK vX3X@ o . . 3 , N -.k.v._.pXvXiXo.                      ",
"                                    X : I V.9XvXxXE.K.F.D.{ v j G 4Xm.d.lXn.3 z 9 8 4 5 .   # 9 ;.h :XvXcXl                     ",
"                                      o e F.!.0XW.V.uXcXbXbXcXcXbXbXlXlXvXcXcXcXcXkX}.V 5       2 v =.vXvX=.                    ",
"                                    X = ..W.A.V.M.) I (.:XbXvXvXvXvXvXvXvXvXvXvXvXvXvX[.6 @     o w u.vXuXn                     ",
"                                  X   f K.| w T ..8.3.q ~ {.vXvXhX%X,X,X,X}.2XbXvXvXzX{.B @     % < 2XqXH.O                     ",
"                                    $ V.P q U } { 4.y.u -.2XvXvXp.            b.vXtX=Xw.7 +   .   ~.8Xy.c                       ",
"                                    E E t U `  .G.{.`.u `.sXvXvXm             ].iX#X(.G #       q.OX5.v                         ",
"                                  $ I t Y [ .. .-.0.m k $XhXbXiX> % > > > z ^.iX@X~.H 4 .     u.*XJ.^ .                         ",
"                                X * w d f Q ] ,.w.].l +.>XpXpXeX<XrXwXeXeXiXwX$X:.5 # .   > `.yX|.$.                            ",
"                              o : : a M { X.9.p.z.z.- w.'.XX_..X&X&X:X:XrX5X:XrXrX^.8   o.8XuXXX~                               ",
"                          . o % : u ( / Q v S K g.g.% v.'. X@Xw.-.>.:.:.>.i.rXhXvXhX>.~.gXaX(.2                                 ",
"                        X X X % % : < , 8 9 N 9 A 4 j n..X=X:X3             c.bX$X~.wXzXwX=.                                    ",
"                            X O % > 3 > . X 3 V K # #.x.H.&X'.              <.`.&XpXqX~.2   o $                                 ",
"                          X O % X X %   o > a h 5   :.h.c.`.u.- j z 2   2 i.;XqX7Xu.A +   X r o                                 ",
"                        X       % x .   X . o 5 3 >.j.h.x.[.3X1Xm.n.c.$XcXvX+Xe.V a.H     q r                                   ",
"                            X % ^ k   .   o O 2 l.j.j.h.h.h.j.g.c..X6X6X X=.C F f.c.O $ i I X                                   ",
"                          X . x r.o.          <.F Z F K :.p./.XX|.H.@.8 B a.s.L #.X ; R ) w                                     ",
"                            1 3.U.#Xq.M h 2 l ;.1.w.i.U.U.G.6.+.a   7 D D G z ;   d Z.N.d                                       ",
"                            O y.oX6XfXzXhXpXwX-X Xe.%.^ v c h @     > - : 0 = $ } Q.Y.P                                         ",
"                              2 0.`.@X#X`.H.4.^ b f s s y O     o = & q q : g C.T.P.t   X                                       ",
"                                        . o $ & & & $       X $ ; q t t U | N.B.P o X o X X X X . X                             ",
"                        X . . X O X X               & e r e q e i i P R R P w o   o o o o o o o o o X X X                       ",
"                    X X O O O % % % O O O X X X . X   X $ & & & 0 0 & * o . X o $ % % - : : : : - % o O o .                     ",
"                  X X         o - : : $ X % X                                 $ - $ o $ : y y * : < - X X o X                   ",
"                X   - M ~ @.*.$.s s y x O.: a @.m n @.k k j $ % x k k n +.+.] y : ! &.&.3.! b &.x : 1 M k X o X                 ",
"                . o   #XjX(.(.pXqXu x iXvX(.n @XpXjX@X&.eX`.    wX@Xt.vX`.(.hX#Xe.vX#XoXeXjX$.hXjX^ X fX`.  % X X               ",
"                X O   I.yX0.0.;X@XX oX=X&.zX]   _.;X    =X;Xy.y.yX~.*.pX@.! #X.X/.5XX o ! jX' ;XiXuX! 5X/.  O X                 ",
"                X X   6. XO.o.y./.O.*XH.e.XX_.o t./.o X U.H.l c /.4.] OX-./.*Xy 6.|.a y ' +Xn |.$.*.OXOX6.  O .                 ",
"                  .   %.r.e.7.7.%.e.' X % 1 r.M ! 3.    3.'     &.' x r.. X 2.4.x 7.r.r.r.2.1 7.!   n G.$.  X                   ",
"                      X X o O o . o X X X X . X . .             .     . X X   O . . o o o X X O o O   O O                       ",
"                                X   X X                                                   . .   . . X                           ",
"                                                                                                                                ",
"                                                                                                                                ",
"                                                                                                                                ",
"                                                                                                                                ",
"                                                                                                                                ",
"                                                                                                                                ",
"                                                                                                                                ",
"                                                                                                                                ",
"                                                                                                                                ",
"                                                                                                                                ",
"                                                                                                                                ",
"                                                                                                                                ",
"                                                                                                                                ",
"                                                                                                                                ",
"                                                                                                                                ",
"                                                                                                                                "
};
