/* XPM */
static char *bathron48[] = {
/* columns rows colors chars-per-pixel */
"48 48 209 2 ",
"   c #000000",
".  c #04050A",
"X  c #06090D",
"o  c #090A0C",
"O  c #0B0805",
"+  c #130B00",
"@  c #120E0C",
"#  c #1B1002",
"$  c #010511",
"%  c #050A13",
"&  c #0B0D12",
"*  c #030E1C",
"=  c #090E1D",
"-  c #0D1116",
";  c #06111C",
":  c #0C121B",
">  c #121212",
",  c #121519",
"<  c #16181C",
"1  c #1A1A1A",
"2  c #1A1814",
"3  c #23190B",
"4  c #2F1D04",
"5  c #221E18",
"6  c #39280A",
"7  c #24221E",
"8  c #262116",
"9  c #382C17",
"0  c #030F22",
"q  c #051526",
"w  c #0E1324",
"e  c #0B162B",
"r  c #051829",
"t  c #141B2B",
"y  c #121823",
"u  c #0C1C33",
"i  c #0A1C39",
"p  c #141C33",
"a  c #1D2124",
"s  c #1D252D",
"d  c #132428",
"f  c #1D2D3A",
"g  c #25282D",
"h  c #2B2B2C",
"j  c #292826",
"k  c #373428",
"l  c #272B31",
"z  c #2A2D32",
"x  c #2D333A",
"c  c #31363C",
"v  c #3E3C3A",
"b  c #5B3F00",
"n  c #403F3F",
"m  c #7D4F0E",
"M  c #6F5616",
"N  c #4A442F",
"B  c #554724",
"V  c #43423C",
"C  c #4F4A3E",
"Z  c #5C513D",
"A  c #534A3A",
"S  c #6C542D",
"D  c #71542E",
"F  c #6B593D",
"G  c #0C2849",
"H  c #142C48",
"J  c #093749",
"K  c #19314C",
"L  c #10315F",
"P  c #353B42",
"I  c #353942",
"U  c #213E5D",
"Y  c #293B56",
"T  c #273947",
"R  c #1C3E62",
"E  c #043A64",
"W  c #223D65",
"Q  c #08495C",
"!  c #2D424C",
"~  c #3C424C",
"^  c #3D4547",
"/  c #28445B",
"(  c #3C565C",
")  c #354255",
"_  c #054471",
"`  c #155D6C",
"'  c #364E6D",
"]  c #264A79",
"[  c #375172",
"{  c #305A6A",
"}  c #444343",
"|  c #44474C",
" . c #564D43",
".. c #5B5849",
"X. c #444B52",
"o. c #464B55",
"O. c #4D5259",
"+. c #535659",
"@. c #6C5A47",
"#. c #605B54",
"$. c #64625D",
"%. c #6D6759",
"&. c #73655B",
"*. c #4E5764",
"=. c #545862",
"-. c #5B626A",
";. c #5C6464",
":. c #5F6772",
">. c #5E7578",
",. c #656869",
"<. c #716E63",
"1. c #76746A",
"2. c #646A73",
"3. c #6A6F75",
"4. c #666E79",
"5. c #716F74",
"6. c #6E7174",
"7. c #6A727D",
"8. c #797B7E",
"9. c #73767A",
"0. c #845C33",
"q. c #886C3C",
"w. c #866A4A",
"e. c #8A7E51",
"r. c #947C5D",
"t. c #937744",
"y. c #857967",
"u. c #867F78",
"i. c #9E8F66",
"p. c #9A8C74",
"a. c #919177",
"s. c #85817C",
"d. c #A99C7B",
"f. c #06518D",
"g. c #184583",
"h. c #2B5A8F",
"j. c #096490",
"k. c #3D618E",
"l. c #3A78AE",
"z. c #506D97",
"x. c #446589",
"c. c #757C87",
"v. c #7C7F83",
"b. c #727B8A",
"n. c #7E8288",
"m. c #7C8390",
"M. c #5F84B4",
"N. c #138EC4",
"B. c #11B2EA",
"V. c #739DD3",
"C. c #5EA2D7",
"Z. c #67AADE",
"A. c #828385",
"S. c #87888A",
"D. c #97928C",
"F. c #898E93",
"G. c #818893",
"H. c #938F90",
"J. c #8F9194",
"K. c #9D9A93",
"L. c #979A9C",
"P. c #9A9B9E",
"I. c #929497",
"U. c #A59F9C",
"Y. c #A2A19E",
"T. c #B6AD97",
"R. c #9B9DA2",
"E. c #939BA7",
"W. c #9FA3AA",
"Q. c #99A4B2",
"!. c #A2A5A9",
"~. c #A7AAAD",
"^. c #A5A5A5",
"/. c #B3AFAC",
"(. c #B1ADA2",
"). c #A4AAB3",
"_. c #ACAEB1",
"`. c #A2A9B4",
"'. c #AEB3B9",
"]. c #B3B5BB",
"[. c #B8B7B8",
"{. c #C5BAAA",
"}. c #C3C3BF",
"|. c #BBBDC0",
" X c #B2BAC7",
".X c #B2D5F2",
"XX c #C4C5C6",
"oX c #C2C6CB",
"OX c #C7C9CD",
"+X c #CDCDCE",
"@X c #CBCAC7",
"#X c #DAD6CD",
"$X c #CACED5",
"%X c #CDD1D9",
"&X c #D2D3D7",
"*X c #D7D9DD",
"=X c #DCDCDC",
"-X c #D4D5D9",
";X c #EEE3C5",
":X c #FFF9C3",
">X c #E4E0DD",
",X c #F7F2D8",
"<X c #D9DDE3",
"1X c #CDFCFF",
"2X c #E5E6E9",
"3X c #FFFFE5",
"4X c #F2F2F2",
"5X c #FEFDFD",
"6X c #F8F7F1",
/* pixels */
"                                                                                                ",
"                                                                                                ",
"                                                                                                ",
"                                                                                                ",
"                                                                                                ",
"                                                                                                ",
"                                                                                                ",
"                                                                                                ",
"                                                                                                ",
"                                                                                                ",
"                                            . & y t t w %                                       ",
"                                  . .   t Y ' ' U K K i i p w .                                 ",
"                                $ L ] x.z.[ / H ) ].;._.,.$ = w o 5 V +.,.5.h                   ",
"                            % u h..X1XC.] R H 0 F :Xq.3XZ   + + 3 7 V %.1.[.5XA.                ",
"                            . G Z.1XV.M.<X<X+XXX#X,X;X6X@XXX@XT.B +     7 z 4X4X>               ",
"                          . $ k.l.] g.U 2.[.5X5X5X5X5X5X5X5X5X5X{.4 O   . P 2X)..               ",
"                        .   Y ] r J ' 2.p } >X5XD. .....C (.5X<XK.6     . I.].P                 ",
"                          w W r J { >.K.I H.6X5Xj         <.=XW.@.#     ,.E.~ .                 ",
"                          u i H / ( ,.$.g [.5X=X} v } n 1.}.S. .3     6.`.o.o                   ",
"                      . % : s ! ( ;.a...} /.].].OX&X*X=X$X/.u.9   1 R.$X-..                     ",
"                    . & : s T ! ^ ..e.k %.U.E.A.$.%.%.<.Y.2X5XD.#.*XoX}                         ",
"                  . . X - < 1 5 8 9 B 2 y.R.XXv         j #X^.|.2XL.1                           ",
"                    . % o > o . > k 9 7 r.A.Y., . .     $.'. XP.V   . =                         ",
"                  . .   & <   o & @ 1 @.r.p.T.d.i.y.u.-X%Xn.F S O . u .                         ",
"                    . & X.o       h w.0.q.w.r.p.K.).E.s.S m t.k $ G w                           ",
"                      I m.|       A D F &.5.c.b.*.k 6 b M N @ r f.H                             ",
"                      =.`.%X&X|._.P.G.:.*.X.c 2   O 8 a * . ` B._                               ",
"                      > +.8.F.v.-.~ f d , o . . % * * q J j.N.Q . . . . .                       ",
"                  . .             . . $ % $ % ; q i G E _ G %   X . . . . . . .                 ",
"              . . o o & & & & o . . . . % = 0 0 q q e = . . X & & - - - - X o X .               ",
"            . . .   X . % y X   X .         . .         . . % . : ; y : % , . . X .             ",
"          . .   ;.P.9.L.2.* 6.~.g 8.P.L.+.n.g   n.+.I.v.J.3.O.!.F.~.-.F.v.. 9.+.  o .           ",
"          . X   6.+X+.[.F.c oX].L.% XX8.& OXA.O.&X,.+X,.F._._.A.% I.!.R.4X-.!.8.  o .           ",
"            .   o.G.o.7.4.c.3.X.E.g 4.~   m.X.g b.^ m.| G.X.2.-.s 4.:.7.X.2.Q.X.  .             ",
"                a P P c z z .   a g a <   l o   g < z   & c < P ~ P , l <   I j   .             ",
"                            . .                       .             .   . .                     ",
"                  . . . . .                                   . . .         .                   ",
"                                                                                                ",
"                                                                                                ",
"                                                                                                ",
"                                                                                                ",
"                                                                                                ",
"                                                                                                ",
"                                                                                                ",
"                                                                                                ",
"                                                                                                ",
"                                                                                                ",
"                                                                                                "
};
