/* XPM */
static char *bathron24[] = {
/* columns rows colors chars-per-pixel */
"24 24 186 2 ",
"   c black",
".  c #000101",
"X  c #010201",
"o  c #010100",
"O  c gray1",
"+  c #000001",
"@  c #000002",
"#  c #0E131F",
"$  c #1B293C",
"%  c #15273F",
"&  c #101E35",
"*  c #091020",
"=  c #01030B",
"-  c #000109",
";  c #486785",
":  c #6E99BD",
">  c #44638A",
",  c #1B324E",
"<  c #818175",
"1  c #B7B19C",
"2  c #3C3E41",
"3  c #050405",
"4  c #16130F",
"5  c #41403A",
"6  c #7E7D7B",
"7  c gray43",
"8  c #152A46",
"9  c #669BCB",
"0  c #557AA5",
"q  c #979EA7",
"w  c #DBDADA",
"e  c #F7F4E9",
"r  c #FDF9ED",
"t  c #E4E2E0",
"y  c #E5E1D8",
"u  c #5F5340",
"i  c #3B3C3E",
"p  c #DADBDC",
"a  c #0C0D0D",
"s  c #05070E",
"d  c #173352",
"f  c #08344B",
"g  c #465762",
"h  c #5C5B60",
"j  c #F7F5F3",
"k  c #4A4A4D",
"l  c #0E0D0D",
"z  c #6E6B63",
"x  c #E8E9EC",
"c  c #564B3F",
"v  c #656973",
"b  c #4D5158",
"n  c #010101",
"m  c #0A101B",
"M  c #182E41",
"N  c #496365",
"B  c #6A6C5C",
"V  c #7D7A7A",
"C  c #D3D4D5",
"Z  c #7E7E7F",
"A  c #7D7E7E",
"S  c #A8A8A7",
"D  c #6E6459",
"F  c #0B0602",
"G  c #7A7F84",
"H  c #585D65",
"J  c #010102",
"K  c #06080D",
"L  c #131720",
"P  c #242B2F",
"I  c #484636",
"U  c #4A4125",
"Y  c #888484",
"T  c #7B7E84",
"R  c #32302E",
"E  c #35332B",
"W  c #A4A4A1",
"Q  c #BFC0C3",
"!  c #9B9C9E",
"~  c #53555A",
"^  c #010203",
"/  c #020306",
"(  c #07070A",
")  c #110E0A",
"_  c #3C2F1D",
"`  c #988772",
"'  c #877F6D",
"]  c #3C372A",
"[  c #484B51",
"{  c #939291",
"}  c #948776",
"|  c #201C1B",
" . c #000006",
".. c #020201",
"X. c #1B1D23",
"o. c #4C5058",
"O. c #0A0B0C",
"+. c #2F2C28",
"@. c #82674A",
"#. c #816E59",
"$. c #8B857A",
"%. c #7B7976",
"&. c #7F735D",
"*. c #705224",
"=. c #2D322B",
"-. c #032547",
";. c #07090F",
":. c #1C1D20",
">. c #898D93",
",. c #969799",
"<. c #6D7076",
"1. c #444E56",
"2. c #2B343E",
"3. c #12161E",
"4. c #010409",
"5. c #0C1516",
"6. c #083147",
"7. c #096891",
"8. c #051E2F",
"9. c #020000",
"0. c #020305",
"q. c #020202",
"w. c #010103",
"e. c #000004",
"r. c #000610",
"t. c #010B1F",
"y. c #001330",
"u. c #011831",
"i. c #01060C",
"p. c #010307",
"a. c #030407",
"s. c #3D3F42",
"d. c #505357",
"f. c #272E36",
"g. c #42474C",
"h. c #333639",
"j. c #4B4C4E",
"k. c #383A3D",
"l. c #1C1F24",
"z. c #36383C",
"x. c #474648",
"c. c #413F40",
"v. c #41454A",
"b. c #4C535A",
"n. c #4F565E",
"m. c #353B41",
"M. c #2B2E32",
"N. c #06080B",
"B. c #020203",
"V. c #000103",
"C. c #787C82",
"Z. c #8B9096",
"A. c #6D747C",
"S. c #898E93",
"D. c #696F76",
"F. c #63676C",
"G. c #595D62",
"H. c #606469",
"J. c #7A7F85",
"K. c #7D8288",
"L. c #82888F",
"P. c #777D84",
"I. c #5C636A",
"U. c #8F959C",
"Y. c #82878D",
"T. c #71777D",
"R. c #020406",
"E. c #030304",
"W. c #010001",
"Q. c #111216",
"!. c #15181D",
"~. c #17191D",
"^. c #040507",
"/. c #121316",
"(. c #08090B",
"). c #070709",
"_. c #040506",
"`. c #0A0C0F",
"'. c #090A0C",
"]. c #090B0E",
"[. c #111418",
"{. c #16191E",
"}. c #0B0E12",
"|. c #0C0D10",
" X c #131519",
".X c white",
/* pixels */
"                                                ",
"                                                ",
"                                                ",
"                    . .                         ",
"                X o                   O         ",
"                + @ # $ % & * = + .             ",
"            o - ; : > , < 1 2 3 4 5 6 7         ",
"          .   8 9 0 q w e r t y u   i p a       ",
"            s d f g h j k l z x c   v b   n     ",
"            m M N B V C Z A S D F G H   o       ",
"        J K L P I U Y T R E W Q ! ~   n         ",
"        ^ / ( n ) _ ` ' ] [ { } |  ...          ",
"      +   X.o.O.+.@.#.$.%.&.*.=.-.;.            ",
"      n   :.>.,.<.1.2.3.4.5.6.7.8.9.0.q.        ",
"      J     w.+ +   e.r.t.y.u.i.  p./ 0.J       ",
"    w.a.s.d.f.g.h.j.k.l.z.x.c.v.b.n.m.M.N.B.    ",
"    B.V.C.Z.A.S.D.F.G.H.J.K.L.P.I.U.Y.T.R.E.    ",
"      W.Q.!.~.^./.(.)._.`.'.].[.{.}.|. XJ +     ",
"              n                   + J           ",
"          n                   + n               ",
"                                                ",
"                                                ",
"                                                ",
"                                                "
};
