/* XPM */
static char *bathron32[] = {
/* columns rows colors chars-per-pixel */
"32 32 170 2 ",
"   c #000000",
".  c #050609",
"X  c #06090D",
"o  c #090A0D",
"O  c #100C05",
"+  c #191103",
"@  c #020612",
"#  c #040914",
"$  c #0B0D14",
"%  c #030D18",
"&  c #090C1A",
"*  c #0E1117",
"=  c #0C111C",
"-  c #04131A",
";  c #121214",
":  c #191614",
">  c #14161A",
",  c #15191A",
"<  c #18191C",
"1  c #1E1D16",
"2  c #291F07",
"3  c #241705",
"4  c #221E18",
"5  c #2F2517",
"6  c #332B11",
"7  c #3A311F",
"8  c #020F23",
"9  c #0F1920",
"0  c #00152E",
"q  c #061629",
"w  c #1F1F21",
"e  c #11192C",
"r  c #151C24",
"t  c #001737",
"y  c #0E1E39",
"u  c #061C31",
"i  c #101E32",
"p  c #1E2225",
"a  c #1B232A",
"s  c #172632",
"d  c #2A2926",
"f  c #26282A",
"g  c #2B2929",
"h  c #242627",
"j  c #332B22",
"k  c #2C2F33",
"l  c #232E37",
"z  c #2E3235",
"x  c #2B343D",
"c  c #373735",
"v  c #32363D",
"b  c #4F3417",
"n  c #5E5336",
"m  c #785721",
"M  c #7D5D39",
"N  c #0F2744",
"B  c #082B43",
"V  c #002948",
"C  c #1A2E4A",
"Z  c #0D3C4B",
"A  c #1B304F",
"S  c #1C3848",
"D  c #1C3350",
"F  c #242F42",
"G  c #333B43",
"H  c #2A3D56",
"J  c #213F64",
"K  c #3C404A",
"L  c #34464D",
"P  c #075277",
"I  c #21426F",
"U  c #204471",
"Y  c #224C77",
"T  c #324E72",
"R  c #424244",
"E  c #41454B",
"W  c #43484E",
"Q  c #514C44",
"!  c #565047",
"~  c #57564F",
"^  c #5C554B",
"/  c #454A50",
"(  c #494E53",
")  c #4B5157",
"_  c #4D545C",
"`  c #585E51",
"'  c #52565A",
"]  c #575858",
"[  c gray35",
"{  c #675E48",
"}  c #726C49",
"|  c #4E5661",
" . c #435F64",
".. c #535961",
"X. c #5C5F62",
"o. c #5C6166",
"O. c #5F6770",
"+. c #696C6C",
"@. c #796F66",
"#. c #777C6F",
"$. c #73706C",
"%. c #646A71",
"&. c #6E7074",
"*. c #6C7D7F",
"=. c #717275",
"-. c #7C7C7C",
";. c #836441",
":. c #826B50",
">. c #8B7A57",
",. c #897660",
"<. c #897F67",
"1. c #807F7E",
"2. c #837C75",
"3. c #8E8069",
"4. c #365E8B",
"5. c #106082",
"6. c #046194",
"7. c #6F7780",
"8. c #7C7E81",
"9. c #747B88",
"0. c #7E8388",
"q. c #608AAB",
"w. c #81878D",
"e. c #86888F",
"r. c #8F8D8A",
"t. c #878583",
"y. c #918F8D",
"u. c #918D82",
"i. c #979180",
"p. c #9C9689",
"a. c #808895",
"s. c #8B8F95",
"d. c #918F90",
"f. c #92969A",
"g. c #95999E",
"h. c #989A9E",
"j. c #999890",
"k. c #A09481",
"l. c #A2A19B",
"z. c #9B9FA4",
"x. c #969AA3",
"c. c #849FBE",
"v. c #9EA1A5",
"b. c #A3A3A4",
"n. c #A8A5A6",
"m. c #A7AAAD",
"M. c #ABAAA8",
"N. c #BAB3AC",
"B. c #A5ADB9",
"V. c #A6ABB1",
"C. c #AEB1B7",
"Z. c #B2B1B3",
"A. c #B7BBBE",
"S. c #B8BABF",
"D. c #D3CFBB",
"F. c #B9BCC0",
"G. c #87B6E1",
"H. c #B0E5FF",
"J. c gray81",
"K. c #C5C2C2",
"L. c #D3CCC2",
"P. c #C1C7D1",
"I. c #DBDBDC",
"U. c #DDDBD6",
"Y. c #F3E8C4",
"T. c #E8E3D9",
"R. c #DDE1E4",
"E. c #F4F2EF",
"W. c white",
"Q. c #E6E6E8",
/* pixels */
"                                                                ",
"                                                                ",
"                                                                ",
"                                                                ",
"                                                                ",
"                                                                ",
"                                                  .             ",
"                          * F H D C y e &                       ",
"                    @ T q.4.J t +.i.j.o   . d ~ -.-.;           ",
"                    U H.G.c.B.e.D.Y.T.y.u.n O 1 c I.n.          ",
"                  = 4.Y I | Z.W.Q.I.U.E.W.L.3   o S.&.          ",
"                  A B Z *.E d.W.h     ^ R.2.+   %.9..           ",
"                # i S  .#.R K.I.=.=.-.M.@.+   8.a.X             ",
"              X = l L ` } ! n.f.r.j.l.J.N.Q C.s.o               ",
"            . X * , : 7 6 ^ Z.]       l.P.F.]                   ",
"                $ . o : j :.k.<.{ [ x.h.3.5   &                 ",
"              > K     4 M ;.,.p.j.t.>.m b u N                   ",
"              v B.b.8.1.$..._ v o + 2 , P 6.@                   ",
"              . R +.X.G s 9 X   % u V P 5.-   .                 ",
"                            @ 8 8 0 0 %     X X X .             ",
"          > k v a a h p z f >   < w g p a E G x r , >           ",
"      .   ' m.v.%.w.A.) Z.' h.( g.v.f.z.v.o.g.V.z.0.'   .       ",
"          k %...O._ ) / / ; ..k _ _ E ' ..G | ..W 7.z           ",
"            o o X     . .             . . > o .   . .           ",
"                                                                ",
"                                                                ",
"                                                                ",
"                                                                ",
"                                                                ",
"                                                                ",
"                                                                ",
"                                                                "
};
